<svg width="35" height="35" viewBox="0 0 35 35" fill="none" xmlns="http://www.w3.org/2000/svg">
<circle cx="17.5" cy="17.5" r="17.5" fill="black"/>
<path d="M7 15.5C6.17157 15.5 5.5 16.1716 5.5 17C5.5 17.8284 6.17157 18.5 7 18.5V15.5ZM28.0607 18.0607C28.6464 17.4749 28.6464 16.5251 28.0607 15.9393L18.5147 6.3934C17.9289 5.80761 16.9792 5.80761 16.3934 6.3934C15.8076 6.97918 15.8076 7.92893 16.3934 8.51472L24.8787 17L16.3934 25.4853C15.8076 26.0711 15.8076 27.0208 16.3934 27.6066C16.9792 28.1924 17.9289 28.1924 18.5147 27.6066L28.0607 18.0607ZM7 18.5H27V15.5H7V18.5Z" fill="white"/>
</svg>
